<?xml version="1.0" encoding="utf-8"?>
<svg version="1.1" xmlns:xlink="http://www.w3.org/1999/xlink" width="13px" height="9px" xmlns="http://www.w3.org/2000/svg">
  <g transform="matrix(1 0 0 1 -182 -81 )">
    <path d="M 12.8697394789579 7.36082474226804  C 12.9565798263193 7.46391752577319  13 7.58247422680412  13 7.71649484536083  C 13 7.85051546391752  12.9565798263193 7.96907216494845  12.8697394789579 8.07216494845361  L 12.2184368737475 8.84536082474227  C 12.1315965263861 8.94845360824742  12.0317301269205 9  11.9188376753507 9  C 11.8059452237809 9  11.7060788243153 8.94845360824742  11.6192384769539 8.84536082474227  L 6.5 2.7680412371134  L 1.38076152304609 8.84536082474227  C 1.2939211756847 8.94845360824742  1.19405477621911 9  1.0811623246493 9  C 0.968269873079492 9  0.868403473613895 8.94845360824742  0.781563126252505 8.84536082474227  L 0.130260521042084 8.07216494845361  C 0.0434201736806948 7.96907216494845  0 7.85051546391752  0 7.71649484536083  C 0 7.58247422680412  0.0434201736806948 7.46391752577319  0.130260521042084 7.36082474226804  L 6.20040080160321 0.154639175257732  C 6.2872411489646 0.0515463917525761  6.38710754843019 0  6.5 0  C 6.61289245156981 0  6.7127588510354 0.0515463917525761  6.79959919839679 0.154639175257732  L 12.8697394789579 7.36082474226804  Z " fill-rule="nonzero" fill="#f5f6f7" stroke="none" transform="matrix(1 0 0 1 182 81 )" />
  </g>
</svg>