<?xml version="1.0" encoding="utf-8"?>
<svg version="1.1" xmlns:xlink="http://www.w3.org/1999/xlink" width="35px" height="35px" xmlns="http://www.w3.org/2000/svg">
  <g transform="matrix(1 0 0 1 -19 40 )">
    <path d="M 34.9254261363636 27.1200284090909  C 34.9751420454545 27.2360321969697  35 27.4100378787879  35 27.6420454545455  C 35 28.0894886363636  34.9171401515152 28.6736505681818  34.7514204545455 29.39453125  C 34.5857007575758 30.1154119318182  34.4116950757576 30.6830018939394  34.2294034090909 31.0973011363636  C 33.8813920454545 31.9258996212121  32.8705018939394 32.8042140151515  31.1967329545455 33.7322443181818  C 29.6389678030303 34.5774147727273  28.0977746212121 35  26.5731534090909 35  C 26.1257102272727 35  25.686553030303 34.9709990530303  25.2556818181818 34.9129971590909  C 24.8248106060606 34.8549952651515  24.3483664772727 34.7514204545455  23.8263494318182 34.6022727272727  C 23.3043323863636 34.453125  22.9148910984849 34.332978219697  22.6580255681818 34.2418323863636  C 22.4011600378788 34.1506865530303  21.9412878787879 33.9808238636364  21.2784090909091 33.7322443181818  C 20.6155303030303 33.4836647727273  20.2095170454546 33.3345170454545  20.0603693181818 33.2848011363636  C 18.4363162878788 32.7047821969697  16.9862689393939 32.0170454545455  15.7102272727273 31.2215909090909  C 13.6055871212121 29.9124053030303  11.4180871212121 28.1226325757576  9.14772727272727 25.8522727272727  C 6.87736742424242 23.5819128787879  5.0875946969697 21.3944128787879  3.77840909090909 19.2897727272727  C 2.98295454545455 18.0137310606061  2.2952178030303 16.5636837121212  1.71519886363636 14.9396306818182  C 1.66548295454545 14.7904829545455  1.51633522727273 14.3844696969697  1.26775568181818 13.7215909090909  C 1.01917613636364 13.0587121212121  0.849313446969697 12.5988399621212  0.758167613636364 12.3419744318182  C 0.66702178030303 12.0851089015151  0.546875 11.6956676136364  0.397727272727273 11.1736505681818  C 0.248579545454545 10.6516335227273  0.145004734848485 10.1751893939394  0.0870028409090909 9.74431818181818  C 0.029000946969697 9.31344696969697  0 8.87428977272727  0 8.42684659090909  C 0 6.90222537878788  0.422585227272727 5.36103219696969  1.26775568181818 3.80326704545454  C 2.19578598484849 2.1294981060606  3.07410037878788 1.11860795454546  3.90269886363636 0.770596590909089  C 4.31699810606061 0.588304924242422  4.88458806818182 0.414299242424239  5.60546875 0.248579545454545  C 6.32634943181818 0.082859848484847  6.91051136363636 0  7.35795454545455 0  C 7.58996212121212 0  7.7639678030303 0.0248579545454553  7.87997159090909 0.0745738636363619  C 8.17826704545454 0.174005681818183  8.61742424242424 0.80374053030303  9.19744318181818 1.96377840909091  C 9.37973484848485 2.27864583333333  9.6283143939394 2.72608901515151  9.94318181818182 3.30610795454546  C 10.2580492424242 3.88612689393939  10.5480587121212 4.41228693181818  10.8132102272727 4.88458806818182  C 11.0783617424242 5.35688920454546  11.3352272727273 5.80018939393939  11.5838068181818 6.21448863636364  C 11.6335227272727 6.28077651515151  11.7785274621212 6.48792613636364  12.0188210227273 6.8359375  C 12.2591145833333 7.18394886363636  12.4372632575758 7.47810132575757  12.5532670454545 7.71839488636364  C 12.6692708333333 7.95868844696969  12.7272727272727 8.19483901515151  12.7272727272727 8.42684659090909  C 12.7272727272727 8.75828598484848  12.4911221590909 9.17258522727273  12.0188210227273 9.66974431818182  C 11.5465198863636 10.1669034090909  11.0327888257576 10.6226325757576  10.4776278409091 11.0369318181818  C 9.92246685606061 11.4512310606061  9.40873579545454 11.8903882575758  8.93643465909091 12.3544034090909  C 8.46413352272727 12.8184185606061  8.22798295454546 13.1995738636364  8.22798295454546 13.4978693181818  C 8.22798295454546 13.6470170454545  8.26941287878788 13.8334517045455  8.35227272727273 14.0571732954545  C 8.43513257575758 14.2808948863636  8.5055634469697 14.4507575757576  8.56356534090909 14.5667613636364  C 8.62156723484849 14.6827651515151  8.73757102272727 14.8816287878788  8.91157670454546 15.1633522727273  C 9.08558238636364 15.4450757575758  9.18087121212121 15.602509469697  9.19744318181818 15.6356534090909  C 10.4569128787879 17.9060132575758  11.8986742424242 19.8532196969697  13.5227272727273 21.4772727272727  C 15.1467803030303 23.1013257575758  17.0939867424242 24.5430871212121  19.3643465909091 25.8025568181818  C 19.397490530303 25.8191287878788  19.5549242424242 25.9144176136364  19.8366477272727 26.0884232954545  C 20.1183712121212 26.2624289772727  20.3172348484849 26.3784327651515  20.4332386363636 26.4364346590909  C 20.5492424242424 26.4944365530303  20.7191051136364 26.5648674242424  20.9428267045455 26.6477272727273  C 21.1665482954545 26.7305871212121  21.3529829545455 26.7720170454545  21.5021306818182 26.7720170454545  C 21.8004261363636 26.7720170454545  22.1815814393939 26.5358664772727  22.6455965909091 26.0635653409091  C 23.1096117424242 25.5912642045455  23.5487689393939 25.0775331439394  23.9630681818182 24.5223721590909  C 24.3773674242424 23.9672111742424  24.8330965909091 23.4534801136364  25.3302556818182 22.9811789772727  C 25.8274147727273 22.5088778409091  26.2417140151515 22.2727272727273  26.5731534090909 22.2727272727273  C 26.8051609848485 22.2727272727273  27.0413115530303 22.3307291666667  27.2816051136364 22.4467329545455  C 27.5218986742424 22.5627367424242  27.8160511363636 22.7408854166667  28.1640625 22.9811789772727  C 28.5120738636364 23.2214725378788  28.7192234848485 23.3664772727273  28.7855113636364 23.4161931818182  C 29.1998106060606 23.6647727272727  29.6431107954545 23.9216382575758  30.1154119318182 24.1867897727273  C 30.5877130681818 24.4519412878788  31.1138731060606 24.7419507575758  31.6938920454545 25.0568181818182  C 32.2739109848485 25.3716856060606  32.7213541666667 25.6202651515151  33.0362215909091 25.8025568181818  C 34.196259469697 26.3825757575758  34.8259943181818 26.8217329545455  34.9254261363636 27.1200284090909  Z " fill-rule="nonzero" fill="#ffffff" stroke="none" transform="matrix(1 0 0 1 19 -40 )" />
  </g>
</svg>