<?xml version="1.0" encoding="utf-8"?>
<svg version="1.1" xmlns:xlink="http://www.w3.org/1999/xlink" width="37px" height="37px" xmlns="http://www.w3.org/2000/svg">
  <g transform="matrix(1 0 0 1 -579 -376 )">
    <path d="M 22.8600260416667 14.1399739583333  C 24.064453125 15.3444010416667  24.6666666666667 16.7977430555556  24.6666666666667 18.5  C 24.6666666666667 20.2022569444444  24.064453125 21.6555989583333  22.8600260416667 22.8600260416667  C 21.6555989583333 24.064453125  20.2022569444444 24.6666666666667  18.5 24.6666666666667  C 16.7977430555556 24.6666666666667  15.3444010416667 24.064453125  14.1399739583333 22.8600260416667  C 12.935546875 21.6555989583333  12.3333333333333 20.2022569444444  12.3333333333333 18.5  C 12.3333333333333 16.7977430555556  12.935546875 15.3444010416667  14.1399739583333 14.1399739583333  C 15.3444010416667 12.935546875  16.7977430555556 12.3333333333333  18.5 12.3333333333333  C 20.2022569444444 12.3333333333333  21.6555989583333 12.935546875  22.8600260416667 14.1399739583333  Z M 25.076171875 7.154296875  C 23.0687934027778 5.98198784722222  20.8767361111111 5.39583333333333  18.5 5.39583333333333  C 16.1232638888889 5.39583333333333  13.9312065972222 5.98198784722222  11.923828125 7.154296875  C 9.91644965277778 8.32660590277778  8.32660590277778 9.91644965277778  7.154296875 11.923828125  C 5.98198784722222 13.9312065972222  5.39583333333333 16.1232638888889  5.39583333333333 18.5  C 5.39583333333333 20.8767361111111  5.98198784722222 23.0687934027778  7.154296875 25.076171875  C 8.32660590277778 27.0835503472222  9.91644965277778 28.6733940972222  11.923828125 29.845703125  C 13.9312065972222 31.0180121527778  16.1232638888889 31.6041666666667  18.5 31.6041666666667  C 20.8767361111111 31.6041666666667  23.0687934027778 31.0180121527778  25.076171875 29.845703125  C 27.0835503472222 28.6733940972222  28.6733940972222 27.0835503472222  29.845703125 25.076171875  C 31.0180121527778 23.0687934027778  31.6041666666667 20.8767361111111  31.6041666666667 18.5  C 31.6041666666667 16.1232638888889  31.0180121527778 13.9312065972222  29.845703125 11.923828125  C 28.6733940972222 9.91644965277778  27.0835503472222 8.32660590277778  25.076171875 7.154296875  Z M 34.5188802083333 9.2138671875  C 36.1729600694444 12.0482855902778  37 15.1436631944444  37 18.5  C 37 21.8563368055556  36.1729600694444 24.9517144097222  34.5188802083333 27.7861328125  C 32.8648003472222 30.6205512152778  30.6205512152778 32.8648003472222  27.7861328125 34.5188802083333  C 24.9517144097222 36.1729600694444  21.8563368055556 37  18.5 37  C 15.1436631944444 37  12.0482855902778 36.1729600694444  9.2138671875 34.5188802083333  C 6.37944878472222 32.8648003472222  4.13519965277778 30.6205512152778  2.48111979166667 27.7861328125  C 0.827039930555555 24.9517144097222  0 21.8563368055556  0 18.5  C 0 15.1436631944444  0.827039930555555 12.0482855902778  2.48111979166667 9.2138671875  C 4.13519965277778 6.37944878472222  6.37944878472222 4.13519965277777  9.2138671875 2.48111979166667  C 12.0482855902778 0.827039930555552  15.1436631944444 0  18.5 0  C 21.8563368055556 0  24.9517144097222 0.827039930555552  27.7861328125 2.48111979166667  C 30.6205512152778 4.13519965277777  32.8648003472222 6.37944878472222  34.5188802083333 9.2138671875  Z " fill-rule="nonzero" fill="#83888d" stroke="none" transform="matrix(1 0 0 1 579 376 )" />
  </g>
</svg>