<?xml version="1.0" encoding="utf-8"?>
<svg version="1.1" xmlns:xlink="http://www.w3.org/1999/xlink" width="18px" height="31px" xmlns="http://www.w3.org/2000/svg">
  <g transform="matrix(1 0 0 1 -17 -9 )">
    <path d="M 17.6907216494845 1.86372745490982  C 17.8969072164948 2.07080828323313  18 2.30895123580494  18 2.57815631262525  C 18 2.84736138944556  17.8969072164948 3.08550434201737  17.6907216494845 3.29258517034068  L 5.5360824742268 15.5  L 17.6907216494845 27.7074148296593  C 17.8969072164948 27.9144956579826  18 28.1526386105544  18 28.4218436873747  C 18 28.6910487641951  17.8969072164948 28.9291917167669  17.6907216494845 29.1362725450902  L 16.1443298969072 30.689378757515  C 15.9381443298969 30.8964595858383  15.7010309278351 31  15.4329896907216 31  C 15.1649484536083 31  14.9278350515464 30.8964595858383  14.7216494845361 30.689378757515  L 0.309278350515464 16.2144288577154  C 0.103092783505155 16.0073480293921  0 15.7692050768203  0 15.5  C 0 15.2307949231797  0.103092783505155 14.9926519706079  0.309278350515464 14.7855711422846  L 14.7216494845361 0.31062124248497  C 14.9278350515464 0.103540414161656  15.1649484536083 0  15.4329896907216 0  C 15.7010309278351 0  15.9381443298969 0.103540414161656  16.1443298969072 0.31062124248497  L 17.6907216494845 1.86372745490982  Z " fill-rule="nonzero" fill="#ffffff" stroke="none" transform="matrix(1 0 0 1 17 9 )" />
  </g>
</svg>