<?xml version="1.0" encoding="utf-8"?>
<svg version="1.1" xmlns:xlink="http://www.w3.org/1999/xlink" width="18px" height="31px" xmlns="http://www.w3.org/2000/svg">
  <g transform="matrix(1 0 0 1 -16 -9 )">
    <path d="M 0.309278350515465 1.86372745490982  C 0.103092783505152 2.07080828323313  0 2.30895123580494  0 2.57815631262525  C 0 2.84736138944556  0.103092783505152 3.08550434201737  0.309278350515465 3.29258517034068  L 12.4639175257732 15.5  L 0.309278350515465 27.7074148296593  C 0.103092783505152 27.9144956579826  0 28.1526386105544  0 28.4218436873747  C 0 28.6910487641951  0.103092783505152 28.9291917167669  0.309278350515465 29.1362725450902  L 1.85567010309278 30.689378757515  C 2.06185567010309 30.8964595858383  2.29896907216495 31  2.56701030927835 31  C 2.83505154639175 31  3.07216494845361 30.8964595858383  3.27835051546392 30.689378757515  L 17.6907216494845 16.2144288577154  C 17.8969072164948 16.0073480293921  18 15.7692050768203  18 15.5  C 18 15.2307949231797  17.8969072164948 14.9926519706079  17.6907216494845 14.7855711422846  L 3.27835051546392 0.31062124248497  C 3.07216494845361 0.103540414161656  2.83505154639175 0  2.56701030927835 0  C 2.29896907216495 0  2.06185567010309 0.103540414161656  1.85567010309278 0.31062124248497  L 0.309278350515465 1.86372745490982  Z " fill-rule="nonzero" fill="#ffffff" stroke="none" transform="matrix(1 0 0 1 16 9 )" />
  </g>
</svg>