<?xml version="1.0" encoding="utf-8"?>
<svg version="1.1" xmlns:xlink="http://www.w3.org/1999/xlink" width="20px" height="21px" xmlns="http://www.w3.org/2000/svg">
  <g transform="matrix(1 0 0 1 -290 -9 )">
    <path d="M 1.8125 0  L 18.1875 0  C 18.4270833333333 0  18.65625 0.0416391275611372  18.875 0.124917382683412  C 19.21875 0.245208195637803  19.4921875 0.434897554527428  19.6953125 0.69398545935228  C 19.8984375 0.95307336417713  20 1.23992068737607  20 1.55452742894911  L 20 19.4454725710509  C 20 19.7600793126239  19.8984375 20.0469266358229  19.6953125 20.3060145406477  C 19.4921875 20.5651024454726  19.21875 20.7547918043622  18.875 20.8750826173166  C 18.6770833333333 20.9491077329808  18.4479166666667 20.986120290813  18.1875 20.986120290813  C 17.6875 20.986120290813  17.2552083333333 20.8380700594845  16.890625 20.5419695968275  L 10 14.6569729015202  L 3.109375 20.5419695968275  C 2.734375 20.8473231989425  2.30208333333333 21  1.8125 21  C 1.57291666666667 21  1.34375 20.9583608724389  1.125 20.8750826173166  C 0.78125 20.7547918043622  0.5078125 20.5651024454726  0.3046875 20.3060145406477  C 0.1015625 20.0469266358229  0 19.7600793126239  0 19.4454725710509  L 0 1.55452742894911  C 0 1.23992068737607  0.1015625 0.95307336417713  0.3046875 0.69398545935228  C 0.5078125 0.434897554527428  0.78125 0.245208195637803  1.125 0.124917382683412  C 1.34375 0.0416391275611372  1.57291666666667 0  1.8125 0  Z " fill-rule="nonzero" fill="#f5222d" stroke="none" transform="matrix(1 0 0 1 290 9 )" />
  </g>
</svg>