<?xml version="1.0" encoding="utf-8"?>
<svg version="1.1" xmlns:xlink="http://www.w3.org/1999/xlink" width="10px" height="10px" xmlns="http://www.w3.org/2000/svg">
  <g transform="matrix(1 0 0 1 -1079 -853 )">
    <path d="M 9.32942708333333 2.490234375  C 9.77647569444444 3.25629340277778  10 4.09288194444444  10 5  C 10 5.90711805555556  9.77647569444444 6.74370659722222  9.32942708333333 7.509765625  C 8.88237847222222 8.27582465277778  8.27582465277778 8.88237847222222  7.509765625 9.32942708333333  C 6.74370659722222 9.77647569444444  5.90711805555556 10  5 10  C 4.09288194444444 10  3.25629340277778 9.77647569444444  2.490234375 9.32942708333333  C 1.72417534722222 8.88237847222222  1.11762152777778 8.27582465277778  0.670572916666667 7.509765625  C 0.223524305555556 6.74370659722222  0 5.90711805555556  0 5  C 0 4.09288194444444  0.223524305555556 3.25629340277778  0.670572916666667 2.490234375  C 1.11762152777778 1.72417534722222  1.72417534722222 1.11762152777778  2.490234375 0.670572916666666  C 3.25629340277778 0.223524305555555  4.09288194444444 0  5 0  C 5.90711805555556 0  6.74370659722222 0.223524305555555  7.509765625 0.670572916666666  C 8.27582465277778 1.11762152777778  8.88237847222222 1.72417534722222  9.32942708333333 2.490234375  Z " fill-rule="nonzero" fill="#000000" stroke="none" transform="matrix(1 0 0 1 1079 853 )" />
  </g>
</svg>