<?xml version="1.0" encoding="utf-8"?>
<svg version="1.1" xmlns:xlink="http://www.w3.org/1999/xlink" width="39px" height="35px" xmlns="http://www.w3.org/2000/svg">
  <g transform="matrix(1 0 0 1 -22 40 )">
    <path d="M 38.9169034090909 27.1200284090909  C 38.9723011363636 27.2360321969697  39 27.4100378787879  39 27.6420454545455  C 39 28.0894886363636  38.9076704545455 28.6736505681818  38.7230113636364 29.39453125  C 38.5383522727273 30.1154119318182  38.3444602272727 30.6830018939394  38.1413352272727 31.0973011363636  C 37.7535511363636 31.9258996212121  36.6271306818182 32.8042140151515  34.7620738636364 33.7322443181818  C 33.0262784090909 34.5774147727273  31.3089488636364 35  29.6100852272727 35  C 29.1115056818182 35  28.6221590909091 34.9709990530303  28.1420454545455 34.9129971590909  C 27.6619318181818 34.8549952651515  27.1310369318182 34.7514204545455  26.5493607954545 34.6022727272727  C 25.9676846590909 34.453125  25.5337357954545 34.332978219697  25.2475142045455 34.2418323863636  C 24.9612926136364 34.1506865530303  24.4488636363636 33.9808238636364  23.7102272727273 33.7322443181818  C 22.9715909090909 33.4836647727273  22.5191761363636 33.3345170454545  22.3529829545455 33.2848011363636  C 20.5433238636364 32.7047821969697  18.9275568181818 32.0170454545455  17.5056818181818 31.2215909090909  C 15.1605113636364 29.9124053030303  12.7230113636364 28.1226325757576  10.1931818181818 25.8522727272727  C 7.66335227272727 23.5819128787879  5.66903409090909 21.3944128787879  4.21022727272727 19.2897727272727  C 3.32386363636364 18.0137310606061  2.55752840909091 16.5636837121212  1.91122159090909 14.9396306818182  C 1.85582386363636 14.7904829545455  1.68963068181818 14.3844696969697  1.41264204545455 13.7215909090909  C 1.13565340909091 13.0587121212121  0.946377840909091 12.5988399621212  0.844815340909091 12.3419744318182  C 0.743252840909091 12.0851089015151  0.609375 11.6956676136364  0.443181818181818 11.1736505681818  C 0.276988636363636 10.6516335227273  0.161576704545455 10.1751893939394  0.0969460227272727 9.74431818181818  C 0.0323153409090909 9.31344696969697  0 8.87428977272727  0 8.42684659090909  C 0 6.90222537878788  0.470880681818182 5.36103219696969  1.41264204545455 3.80326704545454  C 2.44673295454546 2.1294981060606  3.42542613636364 1.11860795454546  4.34872159090909 0.770596590909089  C 4.81036931818182 0.588304924242422  5.44282670454545 0.414299242424239  6.24609375 0.248579545454545  C 7.04936079545455 0.082859848484847  7.70028409090909 0  8.19886363636364 0  C 8.45738636363637 0  8.65127840909091 0.0248579545454553  8.78053977272727 0.0745738636363619  C 9.11292613636364 0.174005681818183  9.60227272727273 0.80374053030303  10.2485795454545 1.96377840909091  C 10.4517045454545 2.27864583333333  10.7286931818182 2.72608901515151  11.0795454545455 3.30610795454546  C 11.4303977272727 3.88612689393939  11.7535511363636 4.41228693181818  12.0490056818182 4.88458806818182  C 12.3444602272727 5.35688920454546  12.6306818181818 5.80018939393939  12.9076704545455 6.21448863636364  C 12.9630681818182 6.28077651515151  13.1246448863636 6.48792613636364  13.3924005681818 6.8359375  C 13.66015625 7.18394886363636  13.8586647727273 7.47810132575757  13.9879261363636 7.71839488636364  C 14.1171875 7.95868844696969  14.1818181818182 8.19483901515151  14.1818181818182 8.42684659090909  C 14.1818181818182 8.75828598484848  13.9186789772727 9.17258522727273  13.3924005681818 9.66974431818182  C 12.8661221590909 10.1669034090909  12.2936789772727 10.6226325757576  11.6750710227273 11.0369318181818  C 11.0564630681818 11.4512310606061  10.4840198863636 11.8903882575758  9.95774147727273 12.3544034090909  C 9.43146306818182 12.8184185606061  9.16832386363636 13.1995738636364  9.16832386363636 13.4978693181818  C 9.16832386363636 13.6470170454545  9.21448863636364 13.8334517045455  9.30681818181818 14.0571732954545  C 9.39914772727273 14.2808948863636  9.47762784090909 14.4507575757576  9.54225852272727 14.5667613636364  C 9.60688920454546 14.6827651515151  9.73615056818182 14.8816287878788  9.93004261363637 15.1633522727273  C 10.1239346590909 15.4450757575758  10.2301136363636 15.602509469697  10.2485795454545 15.6356534090909  C 11.6519886363636 17.9060132575758  13.2585227272727 19.8532196969697  15.0681818181818 21.4772727272727  C 16.8778409090909 23.1013257575758  19.0475852272727 24.5430871212121  21.5774147727273 25.8025568181818  C 21.6143465909091 25.8191287878788  21.7897727272727 25.9144176136364  22.1036931818182 26.0884232954545  C 22.4176136363636 26.2624289772727  22.6392045454545 26.3784327651515  22.7684659090909 26.4364346590909  C 22.8977272727273 26.4944365530303  23.0870028409091 26.5648674242424  23.3362926136364 26.6477272727273  C 23.5855823863636 26.7305871212121  23.7933238636364 26.7720170454545  23.9595170454545 26.7720170454545  C 24.2919034090909 26.7720170454545  24.7166193181818 26.5358664772727  25.2336647727273 26.0635653409091  C 25.7507102272727 25.5912642045455  26.2400568181818 25.0775331439394  26.7017045454545 24.5223721590909  C 27.1633522727273 23.9672111742424  27.6711647727273 23.4534801136364  28.2251420454545 22.9811789772727  C 28.7791193181818 22.5088778409091  29.2407670454546 22.2727272727273  29.6100852272727 22.2727272727273  C 29.8686079545455 22.2727272727273  30.1317471590909 22.3307291666667  30.3995028409091 22.4467329545455  C 30.6672585227273 22.5627367424242  30.9950284090909 22.7408854166667  31.3828125 22.9811789772727  C 31.7705965909091 23.2214725378788  32.0014204545455 23.3664772727273  32.0752840909091 23.4161931818182  C 32.5369318181818 23.6647727272727  33.0308948863636 23.9216382575758  33.5571732954545 24.1867897727273  C 34.0834517045455 24.4519412878788  34.6697443181818 24.7419507575758  35.3160511363636 25.0568181818182  C 35.9623579545455 25.3716856060606  36.4609375 25.6202651515151  36.8117897727273 25.8025568181818  C 38.1044034090909 26.3825757575758  38.8061079545455 26.8217329545455  38.9169034090909 27.1200284090909  Z " fill-rule="nonzero" fill="#ffffff" stroke="none" transform="matrix(1 0 0 1 22 -40 )" />
  </g>
</svg>