<?xml version="1.0" encoding="utf-8"?>
<svg version="1.1" xmlns:xlink="http://www.w3.org/1999/xlink" width="17px" height="17px" xmlns="http://www.w3.org/2000/svg">
  <g transform="matrix(1 0 0 1 -853 -6 )">
    <path d="M 16.5993265993266 12.7070707070707  C 16.8664421997755 12.9741863075196  17 13.2985409652076  17 13.6801346801347  C 17 14.0617283950617  16.8664421997755 14.3860830527497  16.5993265993266 14.6531986531987  L 14.6531986531987 16.5993265993266  C 14.3860830527497 16.8664421997755  14.0617283950617 17  13.6801346801347 17  C 13.2985409652076 17  12.9741863075196 16.8664421997755  12.7070707070707 16.5993265993266  L 8.5 12.3922558922559  L 4.29292929292929 16.5993265993266  C 4.02581369248036 16.8664421997755  3.70145903479237 17  3.31986531986532 17  C 2.93827160493827 17  2.61391694725028 16.8664421997755  2.34680134680135 16.5993265993266  L 0.400673400673401 14.6531986531987  C 0.133557800224467 14.3860830527497  0 14.0617283950617  0 13.6801346801347  C 0 13.2985409652076  0.133557800224467 12.9741863075196  0.400673400673401 12.7070707070707  L 4.60774410774411 8.5  L 0.400673400673401 4.29292929292929  C 0.133557800224467 4.02581369248036  0 3.70145903479237  0 3.31986531986532  C 0 2.93827160493827  0.133557800224467 2.61391694725028  0.400673400673401 2.34680134680135  L 2.34680134680135 0.400673400673401  C 2.61391694725028 0.133557800224466  2.93827160493827 0  3.31986531986532 0  C 3.70145903479237 0  4.02581369248036 0.133557800224466  4.29292929292929 0.400673400673401  L 8.5 4.60774410774411  L 12.7070707070707 0.400673400673401  C 12.9741863075196 0.133557800224466  13.2985409652076 0  13.6801346801347 0  C 14.0617283950617 0  14.3860830527497 0.133557800224466  14.6531986531987 0.400673400673401  L 16.5993265993266 2.34680134680135  C 16.8664421997755 2.61391694725028  17 2.93827160493827  17 3.31986531986532  C 17 3.70145903479237  16.8664421997755 4.02581369248036  16.5993265993266 4.29292929292929  L 12.3922558922559 8.5  L 16.5993265993266 12.7070707070707  Z " fill-rule="nonzero" fill="#ffffff" stroke="none" transform="matrix(1 0 0 1 853 6 )" />
  </g>
</svg>